<?xml version="1.0" encoding="utf-8"?>
<!DOCTYPE svg PUBLIC "-//W3C//DTD SVG 1.1//EN" "http://www.w3.org/Graphics/SVG/1.1/DTD/svg11.dtd">
<svg version="1.1" xmlns="http://www.w3.org/2000/svg" xmlns:xlink="http://www.w3.org/1999/xlink" x="0px" y="0px" viewBox="0 0 454.1 52.7" xml:space="preserve" width="100%" height="100%">
<path d="M77.2,29.1L76.3,29c-0.3,0-0.5,0.1-0.6,0.4c-1.1,6.1-7,6.6-12.4,6.6h-3.7c-5.6,0-6.2-0.8-6.3-1c-0.2-0.8-0.4-1.9-0.4-3.1
	V20.1h11.5c4.2,0,4.5,1.2,4.8,4.8c0,0.3,0.2,0.5,0.5,0.5h0.8c0.3,0,0.5-0.2,0.5-0.4c0.1-0.7,0.1-1.3,0.1-2v-8.7c0-0.6,0-1.3-0.1-1.9
	c0-0.3-0.2-0.4-0.5-0.4h-0.8c-0.3,0-0.5,0.2-0.5,0.5c-0.2,3.3-0.8,4.6-4.1,4.6H53V4.6c0-1.1,0.8-1.5,2.8-1.5h9
	c6.3,0,6.7,0.7,8.5,5.8c0.1,0.2,0.3,0.3,0.5,0.3h0.7C74.8,9.2,75,9,75,8.8c0.3-1.5,0.5-4.7,0.5-6.1V2.3c0-1.5-0.2-2.3-1.5-2.3
	c-0.4,0-0.5,0-0.6,0c-0.1,0-0.6,0-2.6,0h-27c-0.6,0-1.3,0-1.9,0.1c-0.3,0-0.4,0.2-0.4,0.5v0.8c0,0.3,0.2,0.5,0.5,0.5
	c3.3,0.2,4.6,0.8,4.6,4.1v27c0,3.5-1.5,4-4.6,4.2c-0.3,0-0.5,0.2-0.5,0.5v0.8c0,0.3,0.2,0.5,0.4,0.5c0.6,0.1,1.3,0.1,1.9,0.1h30.3
	c0.1,0,0.2,0,0.3-0.1c2.4-1.4,2.8-5.1,3.1-8c0-0.4,0.1-0.8,0.1-1.2C77.7,29.4,77.5,29.2,77.2,29.1 M35.6,28.2h-0.9
	c-0.2,0-0.4,0.1-0.4,0.3c-0.3,0.6-0.6,1.2-0.8,1.8c-0.8,1.8-1.6,3.5-2.9,4.3c-2.4,1.4-5.4,1.5-9.4,1.5h-7.8c-1.3,0-1.7-1-1.7-3.7
	V6.7c0-4.2,1.2-4.5,4.8-4.8c0.3,0,0.5-0.2,0.5-0.5V0.6c0-0.3-0.2-0.5-0.4-0.5C15.6,0,15,0,14.3,0h-12C1.7,0,1,0,0.4,0.1
	C0.2,0.1,0,0.3,0,0.6v0.8c0,0.3,0.2,0.5,0.5,0.5C3.6,2.1,5.1,2.5,5.1,6v27c0,3.5-1.5,4-4.6,4.2c-0.3,0-0.5,0.2-0.5,0.5v0.8
	C0,38.7,0.2,39,0.4,39C1,39,1.7,39,2.3,39h25.3c2.1,0,4.1,0,6.2-0.3c0.2,0,0.4-0.2,0.4-0.4l1.8-9.6c0-0.1,0-0.3-0.1-0.4
	C35.9,28.3,35.8,28.2,35.6,28.2 M175.6,29.1l-0.9-0.1c-0.3,0-0.5,0.1-0.6,0.4c-1.1,6.1-7,6.6-12.4,6.6h-3.7c-5.6,0-6.2-0.8-6.3-1
	c-0.2-0.8-0.4-1.9-0.4-3.1V20.1h11.5c4.2,0,4.5,1.2,4.8,4.8c0,0.3,0.2,0.5,0.5,0.5h0.8c0.3,0,0.5-0.2,0.5-0.4c0.1-0.7,0.1-1.3,0.1-2
	v-8.7c0-0.6,0-1.3-0.1-1.9c0-0.3-0.2-0.4-0.5-0.4h-0.8c-0.3,0-0.5,0.2-0.5,0.5c-0.2,3.3-0.8,4.6-4.1,4.6h-12.2V4.6
	c0-1.1,0.8-1.5,2.8-1.5h9.1c6.3,0,6.7,0.7,8.5,5.8c0.1,0.2,0.3,0.3,0.5,0.3h0.7c0.2,0,0.4-0.2,0.5-0.4c0.3-1.5,0.5-4.7,0.5-6.1V2.3
	c0-1.5-0.2-2.3-1.5-2.3c-0.4,0-0.5,0-0.6,0c-0.1,0-0.6,0-2.6,0h-27c-0.6,0-1.3,0-1.9,0.1c-0.3,0-0.4,0.2-0.4,0.5v0.8
	c0,0.3,0.2,0.5,0.5,0.5c3.3,0.2,4.6,0.8,4.6,4.1v27c0,3.5-1.5,4-4.6,4.2c-0.3,0-0.5,0.2-0.5,0.5v0.8c0,0.3,0.2,0.5,0.4,0.5
	c0.6,0.1,1.3,0.1,1.9,0.1h30.3c0.1,0,0.2,0,0.3-0.1c2.4-1.4,2.8-5.1,3.1-8c0-0.4,0.1-0.8,0.1-1.2C176.1,29.4,175.9,29.2,175.6,29.1
	 M133.8,0.1c-0.7-0.1-1.3-0.1-2-0.1H123c-0.6,0-1.3,0-1.9,0.1c-0.3,0-0.4,0.2-0.4,0.5v0.8c0,0.3,0.2,0.5,0.5,0.5
	c3.1,0.2,4.5,0.6,4.6,4.2v24.5L103.1,7.4c-0.5-0.5-0.9-0.9-1.4-1.4c-2.2-2.4-4.5-4.8-7.4-5.9c-0.1,0-0.1,0-0.2,0h-6.5
	c-0.6,0-1.3,0-1.9,0.1c-0.3,0-0.4,0.2-0.4,0.5v0.8c0,0.3,0.2,0.5,0.5,0.5c3.3,0.2,4.6,0.7,4.6,4.8V33c0,3.5-1.5,4-4.6,4.2
	c-0.3,0-0.5,0.2-0.5,0.5v0.8c0,0.3,0.2,0.5,0.4,0.5C86.3,39,87,39,87.6,39h9c0.6,0,1.3,0,2-0.1c0.3,0,0.4-0.2,0.4-0.5v-0.8
	c0-0.3-0.2-0.5-0.5-0.5c-3.5-0.3-4.8-0.6-4.8-4.8V7.2H94l31.2,32c0.5,0.4,1.5,0.6,2.2,0.6c1.2,0,1.6-0.5,1.7-0.9c0,0,0-0.1,0-0.1
	c0-3.5,0-8.7,0-14.1c0-6.2,0-12.8,0-17.9c0-4.2,1.2-4.5,4.8-4.8c0.3,0,0.5-0.2,0.5-0.5V0.6C134.3,0.3,134.1,0.1,133.8,0.1
	 M235.9,17.6c3.7-1.8,5.7-4.7,5.7-8.2c0-8.4-11.1-9.4-15.9-9.4h-18.1c-0.6,0-1.3,0-1.9,0.1c-0.3,0-0.4,0.2-0.4,0.5v0.8
	c0,0.3,0.2,0.5,0.5,0.5c3.1,0.2,4.6,0.7,4.6,4.7v25.8c0,4.1-1.3,4.6-4.6,4.8c-0.3,0-0.5,0.2-0.5,0.5v0.8c0,0.3,0.2,0.5,0.4,0.5
	c0.6,0.1,1.3,0.1,1.9,0.1h20.6c8,0,16.6-3,16.6-11.3C244.7,22.8,241.3,19,235.9,17.6 M216.7,4.4c0-1.1,0.8-1.5,2.8-1.5
	c7.6,0,15,0.5,15,7c0,6.4-6,7-12.6,7h-5.2V4.4z M223.8,36.1H221c-3.6,0-4.3-0.4-4.3-5.4V19.9h6.6c7.4,0,14,0.6,14,8.2
	C237.3,35.5,230.6,36.1,223.8,36.1 M268.5,0.1c-0.7-0.1-1.3-0.1-2-0.1h-12c-0.6,0-1.3,0-1.9,0.1c-0.3,0-0.4,0.2-0.4,0.5v0.8
	c0,0.3,0.2,0.5,0.5,0.5c3.2,0.2,4.6,0.7,4.6,4.2v30.6c0,6-2.6,11.3-7.1,14.4c-0.1,0.1-0.2,0.2-0.2,0.4v0.7c0,0.2,0.1,0.3,0.2,0.4
	c0.1,0.1,0.2,0.1,0.3,0.1c0,0,0.1,0,0.1,0c8.7-2.4,13.1-9.6,13.1-21.5V5.8c0-3.3,1.2-3.7,4.8-4c0.3,0,0.5-0.2,0.5-0.5V0.6
	C268.9,0.3,268.8,0.1,268.5,0.1 M453.7,29.1l-0.9-0.1c-0.3,0-0.5,0.1-0.6,0.4c-1.1,6.1-7,6.6-12.4,6.6h-3.7c-5.6,0-6.2-0.8-6.3-1
	c-0.2-0.8-0.4-1.9-0.4-3.1V20.1H441c4.2,0,4.5,1.2,4.8,4.8c0,0.3,0.2,0.5,0.5,0.5h0.8c0.3,0,0.5-0.2,0.5-0.4c0.1-0.7,0.1-1.3,0.1-2
	v-8.7c0-0.6,0-1.3-0.1-1.9c0-0.3-0.2-0.4-0.5-0.4h-0.8c-0.3,0-0.5,0.2-0.5,0.5c-0.2,3.3-0.8,4.6-4.1,4.6h-12.2V4.6
	c0-1.1,0.8-1.5,2.8-1.5h9.1c6.3,0,6.7,0.7,8.5,5.8c0.1,0.2,0.3,0.3,0.5,0.3h0.7c0.2,0,0.4-0.2,0.5-0.4c0.3-1.5,0.5-4.7,0.5-6.1V2.3
	c0-1.5-0.2-2.3-1.5-2.3c-0.4,0-0.5,0-0.6,0c-0.1,0-0.6,0-2.6,0h-27c-0.6,0-1.3,0-1.9,0.1c-0.3,0-0.4,0.2-0.4,0.5v0.8
	c0,0.3,0.2,0.5,0.5,0.5c3.3,0.2,4.6,0.8,4.6,4.1v27c0,3.4-1.4,4-4.4,4.1c-4.9-0.4-8.8-1.9-12-4.5c-4.3-3.5-7.3-8.7-9.8-13.3
	c5-1.8,7.6-4.9,7.6-9.4c0-8.7-10.6-10-16.9-10h-16.6c-0.6,0-1.3,0-1.9,0.1c-0.3,0-0.4,0.2-0.4,0.5v0.8c0,0.3,0.2,0.5,0.5,0.5
	c3.3,0.2,4.6,0.8,4.6,4.1v27c0,3.4-1.4,4-4.4,4.1c-4.9-0.4-8.8-1.9-12-4.5c-4.3-3.5-7.3-8.6-9.8-13.3c5-1.8,7.6-4.9,7.6-9.4
	c0-8.7-10.6-10-16.9-10h-16.6c-0.6,0-1.3,0-1.9,0.1c-0.3,0-0.4,0.2-0.4,0.5v0.8c0,0.3,0.2,0.5,0.5,0.5c3.3,0.2,4.6,0.8,4.6,4.1v27
	c0,3.5-1.5,4-4.6,4.2c-0.3,0-0.5,0.2-0.5,0.5v0.8c0,0.3,0.2,0.5,0.4,0.5c0.6,0.1,1.3,0.1,1.9,0.1h12c0.6,0,1.3,0,2-0.1
	c0.3,0,0.4-0.2,0.4-0.5v-0.8c0-0.3-0.2-0.5-0.5-0.5c-3.5-0.3-4.8-0.6-4.8-4.8V21c1.2,0,2.4,0,3.6,0c0.7,0,1.4,0,2.2,0
	c0.8,0,1.7,0,2.6,0c2.4,0,3.7,2,3.8,2.2c4.8,8.5,10.4,16.7,21.4,16.7c1.7,0,3.5-0.4,5.5-0.8l0,0c0.4,0,0.8,0,1.3,0h12
	c0.6,0,1.3,0,2-0.1c0.3,0,0.4-0.2,0.4-0.5v-0.8c0-0.3-0.2-0.5-0.5-0.5c-3.5-0.3-4.8-0.6-4.8-4.8V21c1.2,0,2.4,0,3.6,0
	c0.7,0,1.4,0,2.2,0c0.8,0,1.7,0,2.6,0c2.4,0,3.6,2,3.8,2.2c4.8,8.5,10.4,16.7,21.4,16.7c1.7,0,3.5-0.4,5.5-0.8l0,0
	c0.4,0,0.8,0,1.3,0h30.3c0.1,0,0.2,0,0.3-0.1c2.4-1.4,2.8-5.1,3.1-8.1c0-0.4,0.1-0.8,0.1-1.2C454.1,29.4,453.9,29.2,453.7,29.1
	 M334.9,18c-0.8,0-1.6,0-2.4,0c-0.6,0-1.3,0-1.9,0V4c0-0.9,0-1.1,4.3-1.1c6,0,12.9,0.8,12.9,7.2C347.7,17,341.2,18,334.9,18
	 M384.3,18c-0.8,0-1.6,0-2.4,0c-0.6,0-1.3,0-1.9,0V4c0-0.9,0-1.1,4.3-1.1c6,0,12.9,0.8,12.9,7.2C397.2,17,390.7,18,384.3,18
	 M310.7,29.1l-0.9-0.1c-0.3,0-0.5,0.1-0.6,0.4c-1.1,6.1-7,6.6-12.4,6.6h-3.7c-5.6,0-6.2-0.8-6.3-1c-0.2-0.8-0.4-1.9-0.4-3.1V20.1
	H298c4.2,0,4.5,1.2,4.8,4.8c0,0.3,0.2,0.5,0.5,0.5h0.8c0.3,0,0.5-0.2,0.5-0.4c0.1-0.7,0.1-1.3,0.1-2v-8.7c0-0.6,0-1.3-0.1-1.9
	c0-0.3-0.2-0.4-0.5-0.4h-0.8c-0.3,0-0.5,0.2-0.5,0.5c-0.2,3.3-0.8,4.6-4.1,4.6h-12.2V4.6c0-1.1,0.8-1.5,2.8-1.5h9.1
	c6.3,0,6.7,0.7,8.5,5.8c0.1,0.2,0.3,0.3,0.5,0.3h0.7c0.2,0,0.4-0.2,0.5-0.4c0.3-1.5,0.5-4.7,0.5-6.1V2.3c0-1.5-0.2-2.3-1.5-2.3
	c-0.4,0-0.5,0-0.6,0c-0.1,0-0.6,0-2.6,0h-27c-0.6,0-1.3,0-1.9,0.1c-0.3,0-0.4,0.2-0.4,0.5v0.8c0,0.3,0.2,0.5,0.5,0.5
	c3.3,0.2,4.6,0.8,4.6,4.1v27c0,3.5-1.5,4-4.6,4.2c-0.3,0-0.5,0.2-0.5,0.5v0.8c0,0.3,0.2,0.5,0.4,0.5c0.6,0.1,1.3,0.1,1.9,0.1h30.3
	c0.1,0,0.2,0,0.3-0.1c2.4-1.4,2.8-5.1,3.1-8c0-0.4,0.1-0.8,0.1-1.2C311.1,29.4,310.9,29.2,310.7,29.1"/>
</svg>