<?xml version="1.0" encoding="iso-8859-1" ?>
<!DOCTYPE SVG PUBLIC "-//W3C//DTD SVG 1.1//EN" "http://www.w3.org/Graphics/SVG/1.1/DTD/svg11.dtd">
<svg version="1.1" xmlns="http://www.w3.org/2000/svg" xmlns:xlink="http://www.w3.org/1999/xlink" x="0px" y="0px" viewBox="0 0 454.075 163.826" xml:space="preserve" width="100%" height="100%">
<g>
<path d="M224.333,3.831c10.929-6.012,23.817-5.336,21.504,4.801c-1.343,5.881-10.831,12.839-6.891,13.043
		c5.304,0.272,19.071-1.281,22.462,5.526c4.657,9.353-8.01,17.776-28.629,20.777c-17.646,2.569-23.577-1.348-23.514-8.126
		c0.029-3.065,1.563-6.459,3.606-9.734c2.188-3.506,4.152-5.953,5.162-7.137c0.456-0.534,0.637-0.454,0.513,0.184
		c-0.345,1.764-1.029,5.677-1.304,10.165c-0.277,4.529-0.122,8.283,5.198,10.528c4.08,1.722,11.608,1.479,18.339-0.839
		c15.33-5.283,12.417-17.101,2.089-18.237c-1.848-0.203-7.222-0.253-8.693-0.29c-2.895-0.068-3.443-0.929-2.454-2.97
		c1.173-2.415,3.489-6.894,4.551-9.256c2.241-4.991,2.37-8.301-0.852-9.574c-2.964-1.17-7.686,0.314-10.823,1.598
		C222.706,5.065,223.301,4.399,224.333,3.831" />
<path d="M229.864,55.693c-5.976,2.128-29.194,9.401-38.665-2.26c-9.83-12.107,7.94-35.833,25.152-45.249
		c0.941-0.515,1.828-0.755,0.344,0.49c-1.951,1.637-4.763,4.292-7.338,7.813c-8.777,12-11.656,23.3-10.455,29.454
		c1.763,9.025,10.333,9.602,16.62,9.98c5.055,0.304,11.394-0.274,14.248-0.582C230.722,55.237,230.775,55.369,229.864,55.693" />
<path d="M321.264,163.557c0,0.162,0.107,0.27,0.27,0.27h1.866c0.162,0,0.271-0.107,0.271-0.27v-5.085l3.272-3.949l5.167,9.061
		c0.108,0.189,0.189,0.242,0.378,0.242h2.164c0.19,0,0.271-0.135,0.163-0.297l-6.304-10.874l5.735-6.896
		c0.135-0.163,0.054-0.325-0.108-0.325h-2.219c-0.188,0-0.297,0.054-0.432,0.244l-7.817,9.602v-9.575
		c0-0.163-0.108-0.271-0.271-0.271h-1.866c-0.163,0-0.27,0.107-0.27,0.271V163.557z M295.215,153.791h-4.301
		c-0.107,0-0.162-0.054-0.162-0.161v-5.788c0-0.109,0.055-0.163,0.162-0.163h4.301c2.138,0,3.408,1.136,3.408,3.057
		C298.623,152.655,297.352,153.791,295.215,153.791 M301.166,163.826c0.189,0,0.271-0.162,0.162-0.323l-3.922-7.764
		c2.218-0.703,3.625-2.516,3.625-5.004c0-3.191-2.326-5.302-5.762-5.302h-6.654c-0.162,0-0.271,0.107-0.271,0.271v17.852
		c0,0.162,0.108,0.27,0.271,0.27h1.867c0.162,0,0.27-0.107,0.27-0.27v-7.357c0-0.108,0.055-0.163,0.162-0.163h4.059l3.678,7.52
		c0.082,0.189,0.163,0.27,0.352,0.27H301.166z M258.699,157.336l2.921-8.358h0.055l2.895,8.358H258.699z M254.074,163.557
		c-0.054,0.162,0.027,0.27,0.189,0.27h1.894c0.162,0,0.27-0.081,0.351-0.27l1.407-4.003h7.439l1.406,4.003
		c0.055,0.189,0.162,0.27,0.352,0.27h1.894c0.162,0,0.243-0.107,0.189-0.27l-6.302-17.852c-0.055-0.163-0.163-0.271-0.353-0.271
		h-1.758c-0.189,0-0.272,0.107-0.325,0.271L254.074,163.557z M219.046,163.557c0,0.162,0.108,0.27,0.271,0.27h1.704
		c0.161,0,0.27-0.107,0.27-0.27v-12.794h0.081l4.571,10.116c0.107,0.243,0.243,0.324,0.514,0.324h1.082
		c0.243,0,0.379-0.081,0.487-0.324l4.571-10.116h0.08v12.794c0,0.162,0.108,0.27,0.271,0.27h1.704c0.162,0,0.27-0.107,0.27-0.27
		v-17.852c0-0.163-0.107-0.271-0.27-0.271h-1.758c-0.218,0-0.353,0.081-0.434,0.271l-5.383,12.389h-0.081l-5.491-12.389
		c-0.081-0.189-0.216-0.271-0.433-0.271h-1.758c-0.162,0-0.271,0.107-0.271,0.271V163.557z M185.126,163.557
		c0,0.162,0.108,0.27,0.271,0.27h1.704c0.162,0,0.27-0.107,0.27-0.27v-13.741h0.082l8.358,13.741c0.107,0.216,0.27,0.27,0.459,0.27
		h1.731c0.162,0,0.271-0.107,0.271-0.27v-17.852c0-0.163-0.108-0.271-0.271-0.271h-1.704c-0.163,0-0.27,0.107-0.27,0.271V159.5
		h-0.108l-8.331-13.796c-0.107-0.217-0.244-0.271-0.46-0.271h-1.73c-0.163,0-0.271,0.107-0.271,0.271V163.557z M153.669,163.557
		c0,0.162,0.108,0.27,0.271,0.27h11.062c0.162,0,0.272-0.107,0.272-0.27v-1.704c0-0.162-0.109-0.271-0.272-0.271h-8.764
		c-0.108,0-0.162-0.054-0.162-0.161v-5.6c0-0.107,0.054-0.162,0.162-0.162h7.438c0.162,0,0.27-0.108,0.27-0.271v-1.704
		c0-0.162-0.108-0.27-0.27-0.27h-7.438c-0.108,0-0.162-0.054-0.162-0.163v-5.408c0-0.109,0.054-0.163,0.162-0.163h8.764
		c0.162,0,0.272-0.108,0.272-0.27v-1.704c0-0.163-0.109-0.271-0.272-0.271h-11.062c-0.162,0-0.271,0.107-0.271,0.271V163.557z
		 M122.995,161.42v-13.578c0-0.109,0.054-0.163,0.163-0.163h3.381c2.218,0,3.597,0.731,4.192,2.516
		c0.244,0.676,0.379,1.569,0.379,4.437c0,2.866-0.135,3.76-0.379,4.436c-0.596,1.785-1.975,2.515-4.192,2.515h-3.381
		C123.049,161.581,122.995,161.527,122.995,161.42 M120.588,163.557c0,0.162,0.108,0.27,0.271,0.27h6.194
		c3.11,0,5.166-1.324,6.006-3.922c0.323-1,0.485-2.001,0.485-5.273c0-3.273-0.162-4.274-0.485-5.275
		c-0.84-2.596-2.895-3.922-6.006-3.922h-6.194c-0.162,0-0.271,0.107-0.271,0.271V163.557z" />
<path d="M77.196,113.652l-0.892-0.128c-0.263-0.044-0.512,0.142-0.559,0.403c-1.086,6.095-6.965,6.606-12.39,6.606h-3.698
		c-5.585,0-6.216-0.788-6.28-1.046c-0.241-0.842-0.363-1.89-0.363-3.113v-11.81h11.489c4.188,0,4.501,1.228,4.797,4.774
		c0.021,0.256,0.236,0.454,0.494,0.454h0.83c0.254,0,0.469-0.194,0.493-0.447c0.065-0.663,0.065-1.324,0.065-1.963v-8.731
		c0-0.641,0-1.303-0.066-1.901c-0.028-0.252-0.239-0.442-0.492-0.442h-0.83c-0.263,0-0.479,0.204-0.495,0.467
		c-0.188,3.267-0.799,4.633-4.096,4.633H53.015V89.091c0-1.081,0.764-1.482,2.82-1.482h9.05c6.287,0,6.748,0.655,8.456,5.781
		c0.068,0.203,0.258,0.339,0.472,0.339h0.7c0.239,0,0.444-0.171,0.487-0.405c0.273-1.505,0.454-4.695,0.454-6.147v-0.381
		c0-1.521-0.242-2.344-1.515-2.344c-0.389,0-0.465,0.006-0.564,0.031c-0.093,0.016-0.612,0.032-2.56,0.032H43.85
		c-0.641,0-1.303,0-1.903,0.067c-0.251,0.026-0.441,0.238-0.441,0.492v0.827c0,0.264,0.205,0.48,0.467,0.495
		c3.267,0.193,4.634,0.805,4.634,4.097v27.028c0,3.504-1.484,3.976-4.633,4.157c-0.263,0.017-0.468,0.233-0.468,0.495v0.83
		c0,0.252,0.189,0.463,0.44,0.492c0.601,0.066,1.264,0.066,1.904,0.066h30.28c0.089,0,0.177-0.022,0.252-0.067
		c2.378-1.402,2.775-5.086,3.095-8.046c0.047-0.433,0.092-0.85,0.141-1.244C77.651,113.936,77.463,113.69,77.196,113.652
		 M35.621,112.757h-0.892c-0.187,0-0.356,0.103-0.441,0.268c-0.294,0.571-0.564,1.168-0.834,1.762
		c-0.826,1.817-1.607,3.536-2.929,4.285c-2.4,1.415-5.426,1.524-9.438,1.524h-7.842c-1.282,0-1.735-0.971-1.735-3.712V91.195
		c0-4.188,1.227-4.504,4.773-4.799c0.257-0.021,0.454-0.235,0.454-0.494v-0.828c0-0.256-0.192-0.469-0.446-0.493
		c-0.662-0.066-1.322-0.066-1.961-0.066H2.346c-0.641,0-1.303,0-1.904,0.067C0.19,84.608,0,84.82,0,85.074v0.828
		c0,0.264,0.205,0.479,0.467,0.495c3.149,0.184,4.634,0.654,4.634,4.157v26.966c0,3.505-1.484,3.977-4.634,4.159
		C0.205,121.696,0,121.913,0,122.175v0.829c0,0.252,0.189,0.463,0.44,0.492c0.602,0.067,1.264,0.067,1.905,0.067h25.308
		c2.114,0,4.11,0,6.243-0.259c0.214-0.025,0.387-0.188,0.427-0.4l1.785-9.563c0.026-0.144-0.012-0.293-0.107-0.407
		C35.908,112.822,35.768,112.757,35.621,112.757 M175.626,113.652l-0.891-0.128c-0.265-0.044-0.511,0.142-0.558,0.403
		c-1.087,6.095-6.967,6.606-12.392,6.606h-3.697c-5.586,0-6.215-0.787-6.279-1.048c-0.242-0.838-0.365-1.885-0.365-3.111v-11.81
		h11.49c4.187,0,4.502,1.228,4.797,4.774c0.02,0.256,0.235,0.454,0.494,0.454h0.83c0.254,0,0.468-0.194,0.492-0.447
		c0.066-0.663,0.066-1.324,0.066-1.963v-8.731c0-0.641,0-1.303-0.066-1.901c-0.027-0.252-0.239-0.442-0.491-0.442h-0.83
		c-0.264,0-0.481,0.204-0.495,0.467c-0.189,3.267-0.799,4.633-4.096,4.633h-12.19V89.091c0-1.081,0.764-1.482,2.82-1.482h9.052
		c6.287,0,6.747,0.655,8.455,5.781c0.067,0.203,0.257,0.339,0.471,0.339h0.701c0.239,0,0.445-0.171,0.487-0.405
		c0.273-1.503,0.454-4.694,0.454-6.147v-0.381c0-1.521-0.242-2.344-1.516-2.344c-0.387,0-0.465,0.006-0.564,0.031
		c-0.094,0.016-0.612,0.032-2.561,0.032H142.28c-0.641,0-1.303,0-1.904,0.067c-0.251,0.026-0.44,0.238-0.44,0.492v0.827
		c0,0.264,0.204,0.48,0.466,0.495c3.268,0.193,4.634,0.805,4.634,4.097v27.028c0,3.504-1.484,3.976-4.633,4.157
		c-0.263,0.017-0.467,0.233-0.467,0.495v0.83c0,0.252,0.188,0.463,0.439,0.492c0.602,0.066,1.265,0.066,1.905,0.066h30.281
		c0.088,0,0.175-0.022,0.251-0.067c2.378-1.402,2.774-5.087,3.095-8.048c0.046-0.432,0.091-0.849,0.14-1.242
		C176.08,113.936,175.893,113.69,175.626,113.652 M133.832,84.581c-0.662-0.066-1.322-0.066-1.962-0.066h-8.86
		c-0.641,0-1.303,0-1.903,0.067c-0.251,0.026-0.441,0.238-0.441,0.492v0.827c0,0.264,0.205,0.48,0.466,0.495
		c3.09,0.183,4.46,0.633,4.634,4.158v24.48L103.092,91.93c-0.454-0.465-0.909-0.949-1.368-1.436c-2.222-2.36-4.52-4.801-7.408-5.945
		c-0.06-0.022-0.121-0.034-0.184-0.034h-6.503c-0.64,0-1.302,0-1.902,0.067c-0.252,0.026-0.442,0.238-0.442,0.492v0.827
		c0,0.264,0.206,0.48,0.469,0.495c3.291,0.184,4.632,0.668,4.632,4.797v26.327c0,3.503-1.484,3.976-4.634,4.159
		c-0.262,0.017-0.467,0.233-0.467,0.495v0.829c0,0.252,0.19,0.463,0.441,0.492c0.601,0.066,1.263,0.066,1.903,0.066h8.988
		c0.639,0,1.3,0,1.962-0.065c0.253-0.026,0.446-0.24,0.446-0.493v-0.829c0-0.257-0.198-0.472-0.455-0.494
		c-3.545-0.295-4.772-0.609-4.772-4.797V91.689h0.188l31.2,32.021c0.45,0.36,1.48,0.554,2.222,0.554c1.173,0,1.565-0.506,1.688-0.93
		c0.012-0.045,0.018-0.091,0.018-0.138c0-3.499-0.014-8.652-0.029-14.125c-0.017-6.195-0.035-12.801-0.035-17.878
		c0-4.187,1.227-4.502,4.773-4.798c0.257-0.021,0.454-0.235,0.454-0.494v-0.827C134.278,84.818,134.085,84.606,133.832,84.581
		 M235.868,102.115c3.705-1.816,5.723-4.699,5.723-8.243c0-8.446-11.135-9.357-15.922-9.357h-18.104c-0.641,0-1.303,0-1.904,0.067
		c-0.251,0.026-0.441,0.238-0.441,0.492v0.828c0,0.264,0.205,0.479,0.469,0.495c3.104,0.176,4.574,0.693,4.632,4.668v25.818
		c0,4.13-1.34,4.615-4.632,4.796c-0.263,0.016-0.469,0.233-0.469,0.495v0.829c0,0.252,0.189,0.463,0.441,0.492
		c0.602,0.067,1.264,0.067,1.905,0.067h20.591c8.006,0,16.56-2.96,16.56-11.269C244.715,107.35,241.295,103.482,235.868,102.115
		 M216.73,88.898c0-1.079,0.764-1.479,2.818-1.479c7.588,0,14.996,0.538,14.996,6.964c0,6.429-5.977,6.962-12.637,6.962h-5.178
		V88.898z M223.756,120.662h-2.739c-3.584,0-4.286-0.432-4.286-5.371v-10.916h6.58c7.398,0,14.039,0.626,14.039,8.174
		C237.35,120.035,230.635,120.662,223.756,120.662 M268.5,84.581c-0.663-0.066-1.324-0.066-1.963-0.066h-11.984
		c-0.641,0-1.303,0-1.904,0.067c-0.251,0.026-0.44,0.238-0.44,0.492v0.827c0,0.264,0.204,0.48,0.466,0.495
		c3.15,0.185,4.635,0.655,4.635,4.158v30.602c0,6.014-2.596,11.278-7.12,14.445c-0.132,0.094-0.211,0.244-0.211,0.406v0.703
		c0,0.155,0.072,0.3,0.195,0.394c0.087,0.067,0.192,0.102,0.3,0.102c0.044,0,0.089-0.006,0.133-0.019
		c8.701-2.411,13.113-9.649,13.113-21.514v-25.31c0-3.253,1.237-3.653,4.776-3.97c0.256-0.021,0.451-0.235,0.451-0.493v-0.827
		C268.946,84.818,268.754,84.606,268.5,84.581 M453.65,113.652l-0.894-0.128c-0.256-0.044-0.511,0.142-0.559,0.403
		c-1.086,6.095-6.964,6.606-12.389,6.606h-3.696c-5.586,0-6.218-0.788-6.282-1.046c-0.241-0.842-0.362-1.89-0.362-3.113v-11.81
		h11.489c4.186,0,4.501,1.228,4.797,4.774c0.021,0.256,0.236,0.454,0.494,0.454h0.828c0.254,0,0.468-0.193,0.493-0.446
		c0.066-0.663,0.066-1.324,0.066-1.964v-8.731c0-0.641,0-1.303-0.067-1.903c-0.028-0.25-0.24-0.44-0.492-0.44h-0.828
		c-0.263,0-0.479,0.204-0.495,0.467c-0.189,3.267-0.8,4.633-4.094,4.633h-12.191V89.091c0-1.081,0.764-1.482,2.818-1.482h9.053
		c6.286,0,6.746,0.655,8.455,5.781c0.067,0.203,0.258,0.339,0.47,0.339h0.701c0.239,0,0.444-0.171,0.487-0.405
		c0.273-1.498,0.454-4.691,0.454-6.147v-0.381c0-1.521-0.241-2.344-1.516-2.344c-0.388,0-0.466,0.007-0.565,0.031
		c-0.093,0.016-0.612,0.032-2.559,0.032h-26.966c-0.642,0-1.304,0-1.904,0.067c-0.251,0.026-0.44,0.238-0.44,0.492v0.827
		c0,0.264,0.204,0.48,0.466,0.495c3.269,0.192,4.635,0.805,4.635,4.097v27.028c0,3.432-1.428,3.953-4.444,4.145
		c-4.876-0.416-8.824-1.871-12.018-4.464c-4.252-3.502-7.291-8.65-9.801-13.297c5.016-1.784,7.558-4.943,7.558-9.398
		c0-8.695-10.575-9.993-16.879-9.993h-16.639c-0.641,0-1.303,0-1.902,0.067c-0.251,0.026-0.44,0.238-0.44,0.492v0.828
		c0,0.264,0.204,0.479,0.466,0.495c3.268,0.192,4.634,0.804,4.634,4.096v27.027c0,3.431-1.426,3.953-4.439,4.146
		c-4.878-0.415-8.828-1.87-12.025-4.464c-4.25-3.5-7.289-8.649-9.801-13.297c5.019-1.784,7.56-4.943,7.56-9.398
		c0-8.695-10.575-9.993-16.88-9.993h-16.639c-0.641,0-1.303,0-1.903,0.067c-0.251,0.026-0.44,0.238-0.44,0.492v0.828
		c0,0.264,0.204,0.479,0.466,0.495c3.268,0.192,4.634,0.804,4.634,4.096v27.027c0,3.505-1.485,3.977-4.634,4.159
		c-0.262,0.017-0.466,0.233-0.466,0.495v0.829c0,0.252,0.188,0.463,0.438,0.492c0.602,0.067,1.265,0.067,1.905,0.067h11.985
		c0.639,0,1.3,0,1.964-0.066c0.253-0.027,0.444-0.24,0.444-0.493v-0.829c0-0.257-0.197-0.472-0.454-0.494
		c-3.546-0.294-4.774-0.608-4.774-4.797V105.48c1.188,0.042,2.404,0.042,3.585,0.042c0.669,0,1.396-0.014,2.159-0.028
		c0.838-0.018,1.722-0.034,2.622-0.034c2.436,0,3.65,1.954,3.778,2.171c4.789,8.45,10.389,16.699,21.402,16.699
		c1.682,0,3.521-0.382,5.468-0.787l0.024-0.005c0.416,0.019,0.841,0.026,1.263,0.026h11.986c0.639,0,1.299,0,1.963-0.066
		c0.253-0.027,0.444-0.24,0.444-0.493v-0.829c0-0.257-0.197-0.472-0.454-0.494c-3.547-0.294-4.773-0.608-4.773-4.797V105.48
		c1.188,0.042,2.404,0.042,3.585,0.042c0.668,0,1.395-0.014,2.157-0.028c0.839-0.018,1.723-0.034,2.624-0.034
		c2.439,0,3.649,1.954,3.776,2.171c4.791,8.45,10.392,16.699,21.404,16.699c1.68,0,3.519-0.382,5.466-0.786l0.029-0.007
		c0.415,0.019,0.838,0.026,1.26,0.026h30.281c0.089,0,0.176-0.022,0.252-0.067c2.377-1.403,2.775-5.091,3.096-8.055
		c0.046-0.429,0.091-0.844,0.14-1.235C454.105,113.936,453.918,113.69,453.65,113.652 M334.885,102.493
		c-0.795,0-1.604-0.018-2.414-0.032c-0.648-0.013-1.297-0.027-1.938-0.031V88.516c0-0.865,0-1.098,4.286-1.098
		c6.002,0,12.893,0.82,12.893,7.217C347.712,101.559,341.227,102.493,334.885,102.493 M384.35,102.493
		c-0.793,0-1.602-0.018-2.411-0.032c-0.648-0.013-1.297-0.027-1.938-0.031V88.516c0-0.865,0-1.098,4.286-1.098
		c6.002,0,12.893,0.82,12.893,7.217C397.18,101.559,390.693,102.493,384.35,102.493 M310.66,113.652l-0.893-0.128
		c-0.256-0.044-0.511,0.142-0.559,0.403c-1.085,6.095-6.964,6.606-12.39,6.606h-3.697c-5.585,0-6.215-0.787-6.278-1.048
		c-0.243-0.838-0.366-1.886-0.366-3.111v-11.81h11.491c4.186,0,4.502,1.228,4.795,4.774c0.022,0.256,0.237,0.454,0.496,0.454h0.829
		c0.255,0,0.469-0.194,0.493-0.448c0.064-0.662,0.064-1.323,0.064-1.962v-8.731c0-0.641,0-1.303-0.065-1.901
		c-0.026-0.251-0.239-0.442-0.492-0.442h-0.829c-0.264,0-0.48,0.204-0.496,0.467c-0.189,3.267-0.799,4.633-4.096,4.633h-12.19
		V89.091c0-1.081,0.765-1.482,2.821-1.482h9.051c6.287,0,6.748,0.655,8.457,5.781c0.066,0.203,0.256,0.339,0.469,0.339h0.701
		c0.239,0,0.444-0.171,0.487-0.405c0.274-1.505,0.454-4.695,0.454-6.147v-0.381c0-1.521-0.24-2.344-1.516-2.344
		c-0.387,0-0.465,0.007-0.564,0.031c-0.093,0.016-0.612,0.032-2.56,0.032h-26.965c-0.641,0-1.302,0-1.903,0.067
		c-0.251,0.026-0.439,0.238-0.439,0.492v0.827c0,0.264,0.203,0.48,0.465,0.495c3.268,0.193,4.634,0.805,4.634,4.097v27.028
		c0,3.504-1.484,3.976-4.634,4.157c-0.262,0.017-0.465,0.233-0.465,0.495v0.83c0,0.252,0.188,0.463,0.438,0.492
		c0.603,0.066,1.264,0.066,1.904,0.066h30.282c0.088,0,0.175-0.022,0.252-0.067c2.375-1.402,2.772-5.086,3.093-8.046
		c0.047-0.432,0.092-0.85,0.141-1.244C311.115,113.936,310.928,113.69,310.66,113.652" />
</g>
</svg>
